<svg xmlns="http://www.w3.org/2000/svg" width="123" height="18" viewBox="0 0 123 18">
    <g fill="none" fill-rule="evenodd">
        <path fill="#FFF" fill-opacity="0" d="M0 0H125V20H0z" transform="translate(0 -1)"/>
        <g>
            <g>
                <path fill="#FFF" fill-opacity="0" d="M0 0H28.156V17H0z" transform="translate(0 -1) translate(0 1) translate(52 .5)"/>
                <g fill-rule="nonzero">
                    <path fill="#FFB600" d="M28.184 8.5c0 4.653-3.758 8.455-8.455 8.455-4.653 0-8.455-3.802-8.455-8.455 0-4.653 3.758-8.455 8.41-8.455 4.742 0 8.5 3.802 8.5 8.455z" transform="translate(0 -1) translate(0 1) translate(52 .5)"/>
                    <path fill="#E52836" d="M8.366.045C3.758.089 0 3.847 0 8.5c0 4.653 3.758 8.455 8.455 8.455 2.192 0 4.16-.85 5.682-2.192.313-.268.581-.581.85-.895h-1.745c-.224-.268-.447-.581-.626-.85h2.997c.18-.268.358-.581.492-.894h-3.981c-.135-.269-.269-.582-.358-.895h4.652c.269-.85.448-1.745.448-2.684 0-.627-.09-1.208-.18-1.79h-5.189c.045-.313.135-.581.224-.894h4.653c-.09-.314-.224-.627-.358-.895h-3.937c.134-.313.313-.582.492-.895h2.997c-.179-.313-.402-.626-.67-.895h-1.656c.269-.313.537-.581.85-.85C12.616.94 10.602.134 8.411.134c0-.09 0-.09-.045-.09z" transform="translate(0 -1) translate(0 1) translate(52 .5)"/>
                    <g fill="#FFF">
                        <path d="M10.67 4.384l.134-.76c-.045 0-.134.044-.224.044-.313 0-.358-.179-.313-.268l.269-1.566h.492l.134-.85h-.448l.09-.537h-.895s-.537 2.953-.537 3.31c0 .538.314.761.716.761.269 0 .492-.09.582-.134zM10.983 2.953c0 1.252.85 1.565 1.566 1.565.67 0 .94-.134.94-.134l.178-.85s-.492.224-.94.224c-.984 0-.805-.716-.805-.716h1.835s.134-.581.134-.805c0-.582-.313-1.298-1.298-1.298-.94-.089-1.61.895-1.61 2.014zm1.566-1.298c.492 0 .402.582.402.627h-.984c0-.045.09-.627.582-.627zM18.23 4.384l.18-.984s-.448.224-.761.224c-.627 0-.895-.492-.895-1.03 0-1.073.537-1.655 1.163-1.655.447 0 .805.269.805.269l.135-.94s-.537-.223-1.03-.223c-1.028 0-2.057.894-2.057 2.594 0 1.119.537 1.88 1.61 1.88.358 0 .85-.135.85-.135zM5.749.85c-.627 0-1.074.179-1.074.179l-.134.76s.402-.178.984-.178c.313 0 .582.044.582.313 0 .179-.045.223-.045.223h-.403c-.76 0-1.61.314-1.61 1.342 0 .806.537.985.85.985.626 0 .894-.403.94-.403l-.046.358H6.6l.358-2.46C6.957.894 6.062.85 5.749.85zm.179 2.013c0 .134-.09.85-.627.85-.268 0-.358-.224-.358-.358 0-.223.135-.537.806-.537.134.045.179.045.179.045zM7.807 4.474c.223 0 1.342.044 1.342-1.163 0-1.119-1.074-.895-1.074-1.343 0-.223.179-.313.492-.313.134 0 .626.045.626.045l.135-.805s-.314-.09-.85-.09c-.671 0-1.342.269-1.342 1.163 0 1.03 1.118.94 1.118 1.343 0 .268-.313.313-.537.313-.403 0-.805-.135-.805-.135l-.134.806c.044.09.268.179 1.029.179zM25.657.134l-.18 1.208s-.357-.447-.85-.447c-.805 0-1.52.984-1.52 2.147 0 .716.357 1.476 1.118 1.476.537 0 .85-.357.85-.357l-.045.313h.895l.671-4.295-.94-.045zm-.403 2.371c0 .492-.224 1.119-.716 1.119-.313 0-.492-.269-.492-.716 0-.716.313-1.163.716-1.163.313 0 .492.223.492.76zM.872 4.429L1.409 1.208 1.499 4.429 2.125 4.429 3.288 1.208 2.796 4.429 3.736 4.429 4.451.134 2.975.134 2.08 2.774 2.036.134.738.134.022 4.429zM14.74 4.429c.27-1.476.314-2.684.94-2.46.09-.582.224-.806.313-1.03h-.179c-.402 0-.715.537-.715.537l.09-.492h-.85l-.582 3.49h.984v-.045zM20.288.85c-.626 0-1.074.179-1.074.179l-.134.76s.403-.178.984-.178c.314 0 .582.044.582.313 0 .179-.045.223-.045.223H20.2c-.76 0-1.61.314-1.61 1.342 0 .806.536.985.85.985.625 0 .894-.403.939-.403l-.045.358h.805l.358-2.46C21.541.894 20.601.85 20.288.85zm.224 2.013c0 .134-.09.85-.626.85-.269 0-.358-.224-.358-.358 0-.223.134-.537.805-.537.134.045.134.045.179.045zM22.257 4.429c.268-1.476.313-2.684.94-2.46.089-.582.223-.806.312-1.03h-.179c-.402 0-.716.537-.716.537l.09-.492h-.85l-.582 3.49h.985v-.045z" transform="translate(0 -1) translate(0 1) translate(52 .5) translate(.783 6.263)"/>
                    </g>
                </g>
            </g>
            <g fill-rule="nonzero">
                <path fill="#00579F" d="M16.05 11.814L13.05 11.814 14.926.21 17.927.21zM26.927.494C26.335.259 25.397 0 24.236 0c-2.963 0-5.05 1.58-5.063 3.839-.024 1.667 1.494 2.592 2.63 3.148 1.16.568 1.555.939 1.555 1.445-.011.777-.938 1.135-1.801 1.135-1.198 0-1.84-.184-2.816-.617l-.395-.185-.42 2.605c.704.32 2 .605 3.347.617 3.148 0 5.198-1.555 5.222-3.963.012-1.32-.79-2.333-2.519-3.16-1.05-.53-1.692-.889-1.692-1.432.012-.494.544-1 1.728-1 .976-.025 1.692.21 2.235.445L26.52 3l.408-2.506zM30.915 7.703c.247-.666 1.197-3.246 1.197-3.246-.012.024.247-.68.395-1.111l.21 1s.568 2.777.691 3.357h-2.493zM34.618.21h-2.32c-.716 0-1.26.21-1.569.963l-4.457 10.641h3.149l.63-1.74h3.852c.086.407.358 1.74.358 1.74h2.778L34.619.21zM10.544.21L7.605 8.123l-.32-1.605c-.544-1.851-2.248-3.863-4.15-4.864l2.692 10.148H9L13.716.21h-3.172z" transform="translate(0 -1) translate(0 1) translate(0 3)"/>
                <path fill="#FAA61A" d="M4.877.21H.049L0 .445c3.766.963 6.26 3.284 7.284 6.074l-1.05-5.333C6.063.445 5.532.235 4.878.21z" transform="translate(0 -1) translate(0 1) translate(0 3)"/>
            </g>
            <g>
                <path fill="#FFF" fill-opacity="0" d="M0 0H24.65V17H0z" transform="translate(0 -1) translate(0 1) translate(97.5)"/>
                <g fill-rule="nonzero">
                    <path fill="#306FC5" d="M24.588 15.525c0 .803-.651 1.453-1.454 1.453H1.454C.65 16.978 0 16.328 0 15.525V1.475C0 .672.65.022 1.453.022h21.681c.803 0 1.454.65 1.454 1.453v14.05z" transform="translate(0 -1) translate(0 1) translate(97.5)"/>
                    <path fill="#202121" d="M1.033 15.525V1.475c0-.803.651-1.453 1.454-1.453H1.453C.651.022 0 .672 0 1.475v14.05c0 .803.65 1.453 1.453 1.453h1.034c-.803 0-1.454-.65-1.454-1.453z" opacity=".15" transform="translate(0 -1) translate(0 1) translate(97.5)"/>
                    <g fill="#FFF">
                        <path d="M1.853 1.813L2.588 1.813 2.221.878zM5.76 4.951L5.76 5.386 6.996 5.386 6.996 5.853 5.76 5.853 5.76 6.354 7.129 6.354 7.764 5.653 7.163 4.951zM15.41.878L15.01 1.813 15.778 1.813zM9.333 6.621L9.333 4.718 8.465 5.653zM10.97 5.252c-.034-.2-.168-.3-.368-.3H9.9v.6h.734c.2 0 .334-.1.334-.3zM13.307 5.486c.066-.034.1-.134.1-.234.033-.133-.034-.2-.1-.234-.067-.033-.167-.033-.267-.033h-.668v.534h.668c.1 0 .2 0 .267-.033z" transform="translate(0 -1) translate(0 1) translate(97.5) translate(1.729 4.994)"/>
                        <path d="M18.115.01v.4l-.2-.4h-1.57v.4l-.2-.4h-2.137c-.367 0-.668.066-.935.2v-.2H11.57v.2c-.167-.134-.367-.2-.634-.2H5.56l-.368.834L4.825.01H3.123v.4l-.168-.4H1.486L.818 1.579.05 3.282l-.014.033h1.738l.012-.033.2-.5h.435l.2.533h1.937v-.4l.167.4h.968l.167-.4v.4H10.502v-.868h.067c.066 0 .066 0 .066.1v.735h2.405v-.2c.2.1.5.2.901.2h1.002l.2-.534h.468l.2.534h1.937V2.78l.3.5h1.57V.01h-1.503zM6.795 2.815h-.534V.978l-.033.077v-.001l-.777 1.76h-.493l-.8-1.836v1.837H3.021l-.234-.501H1.653l-.234.5H.832L1.82.478h.835l.935 2.237V.477H4.474l.016.034h.001l.421.916.303.687.01-.034.668-1.603h.902v2.338zM9.1.978H7.797v.434h1.269v.467H7.797v.468h1.302v.5H7.23V.478H9.1v.5zm2.382.861l.003.002c.013.013.024.027.033.04.064.083.115.208.118.391v.018c.002.018.002.037.002.057v.468h-.5v-.268c0-.133 0-.334-.101-.467-.032-.032-.064-.052-.098-.067-.05-.033-.145-.033-.303-.033h-.6v.835h-.568V.477h1.269c.3 0 .5 0 .667.1.164.099.263.261.267.52-.008.355-.236.55-.4.616 0 0 .111.022.211.126zm1.124.976h-.567V.477h.567v2.338zm6.512 0h-.735l-1.068-1.77v1.469l-.004-.004v.306h-.564v-.001h-.568l-.2-.501h-1.169l-.2.534h-.635c-.267 0-.6-.067-.8-.267-.201-.2-.301-.468-.301-.902 0-.334.066-.668.3-.935.167-.2.468-.267.835-.267h.534v.5h-.534c-.2 0-.3.034-.434.135-.1.1-.167.3-.167.534 0 .267.033.434.167.567.1.1.234.134.4.134h.234l.768-1.836h.835l.935 2.237V.51h.835l.968 1.636V.51h.568v2.304z" transform="translate(0 -1) translate(0 1) translate(97.5) translate(1.729 4.994)"/>
                        <path d="M11.005 1.45c.01-.01.018-.022.026-.035.03-.048.065-.134.046-.252 0-.01-.003-.02-.005-.03l-.001-.008c-.017-.057-.06-.092-.102-.114-.067-.033-.167-.033-.267-.033h-.668v.534h.668c.1 0 .2 0 .267-.033.01-.005.02-.012.028-.02l.008-.008zM21.087 6.154c0-.234-.067-.468-.167-.635V4.017h-.001v-.1H19.31c-.209 0-.461.2-.461.2v-.2h-1.536c-.234 0-.534.066-.668.2v-.2h-2.738v.2c-.2-.167-.568-.2-.735-.2H11.37v.2c-.167-.167-.568-.2-.768-.2H8.598l-.467.5-.434-.5H4.692V7.29H7.63l.483-.484.418.483h1.871v-.768h.167c.233 0 .534 0 .768-.1v.901h1.502V6.454h.067c.1 0 .1 0 .1.1v.768h4.541c.301 0 .601-.066.768-.2v.2h1.436c.3 0 .601-.033.802-.167.307-.184.5-.51.53-.9l.004-.035-.002-.001.002-.065zm-10.518-.2H9.9v.868H8.803l-.639-.735-.002.002-.031-.036-.735.769H5.26V4.484h2.17l.594.65.124.136.017-.018.702-.768h1.77c.343 0 .727.085.873.434.018.07.028.147.028.234 0 .668-.468.802-.968.802zm3.339-.034c.066.1.1.234.1.434v.468h-.568v-.3c0-.135 0-.368-.1-.469-.067-.1-.2-.1-.4-.1h-.602v.869h-.567V4.45h1.269c.267 0 .5 0 .668.1.166.1.3.267.3.534 0 .367-.234.568-.4.635.166.066.266.133.3.2zm2.304-.969h-1.303v.435h1.27v.467h-1.27v.468h1.303v.5h-1.87v-2.37h1.87v.5zm1.402 1.87h-1.068v-.5h1.068c.1 0 .167 0 .234-.067.034-.034.067-.1.067-.167s-.033-.133-.067-.167c-.033-.033-.1-.067-.2-.067-.535-.033-1.17 0-1.17-.734 0-.334.201-.702.802-.702h1.102v.568h-1.035c-.1 0-.167 0-.234.033-.066.034-.066.1-.066.167 0 .1.066.134.133.167.067.034.134.034.2.034h.301c.3 0 .5.066.634.2.1.1.167.267.167.501 0 .5-.3.735-.868.735zm2.872-.233c-.133.133-.367.234-.701.234h-1.069V6.32h1.069c.1 0 .167 0 .233-.067.034-.034.067-.1.067-.167s-.033-.133-.067-.167c-.033-.033-.1-.067-.2-.067-.534-.033-1.169 0-1.169-.734 0-.318.182-.604.63-.69.053-.007.11-.012.172-.012h1.102v.568h-1.035c-.1 0-.167 0-.234.033-.034.034-.067.1-.067.167 0 .1.033.134.134.167.066.034.133.034.2.034H19.851c.146 0 .257.018.358.053.092.034.398.17.467.528.006.038.01.077.01.12 0 .2-.067.367-.2.5z" transform="translate(0 -1) translate(0 1) translate(97.5) translate(1.729 4.994)"/>
                    </g>
                </g>
            </g>
        </g>
    </g>
</svg>
