<?xml version="1.0" encoding="UTF-8"?>
<svg width="42px" height="39px" viewBox="0 0 42 39" version="1.1" xmlns="http://www.w3.org/2000/svg" xmlns:xlink="http://www.w3.org/1999/xlink">
    <!-- Generator: Sketch 59.1 (86144) - https://sketch.com -->
    <title>xhdpi/Group 12</title>
    <desc>Created with Sketch.</desc>
    <defs>
        <linearGradient x1="0.704825415%" y1="45.2263604%" x2="116.106197%" y2="56.4235052%" id="linearGradient-1">
            <stop stop-color="#CA1E3F" offset="0%"></stop>
            <stop stop-color="#381CE2" offset="100%"></stop>
        </linearGradient>
        <linearGradient x1="0%" y1="0.41764101%" x2="116.106197%" y2="115.776693%" id="linearGradient-2">
            <stop stop-color="#CA1E3F" offset="0.607052365%"></stop>
            <stop stop-color="#381CE2" offset="100%"></stop>
        </linearGradient>
        <linearGradient x1="0%" y1="22.1099231%" x2="116.106197%" y2="86.9993898%" id="linearGradient-3">
            <stop stop-color="#CA1E3F" offset="0.607052365%"></stop>
            <stop stop-color="#381CE2" offset="100%"></stop>
        </linearGradient>
        <linearGradient x1="0%" y1="24.3856759%" x2="116.106197%" y2="83.9803423%" id="linearGradient-4">
            <stop stop-color="#CA1E3F" offset="0.607052365%"></stop>
            <stop stop-color="#381CE2" offset="100%"></stop>
        </linearGradient>
        <linearGradient x1="19.3237669%" y1="0%" x2="90.5577821%" y2="116.330742%" id="linearGradient-5">
            <stop stop-color="#CA1E3F" offset="0.607052365%"></stop>
            <stop stop-color="#381CE2" offset="100%"></stop>
        </linearGradient>
        <linearGradient x1="0%" y1="0.41764101%" x2="116.106197%" y2="115.776693%" id="linearGradient-6">
            <stop stop-color="#CA1E3F" offset="0.607052365%"></stop>
            <stop stop-color="#381CE2" offset="100%"></stop>
        </linearGradient>
        <linearGradient x1="0%" y1="49.6641274%" x2="116.106197%" y2="50.4455736%" id="linearGradient-7">
            <stop stop-color="#CA1E3F" offset="0.607052365%"></stop>
            <stop stop-color="#381CE2" offset="100%"></stop>
        </linearGradient>
        <linearGradient x1="0%" y1="49.7154364%" x2="116.106197%" y2="50.3775063%" id="linearGradient-8">
            <stop stop-color="#CA1E3F" offset="0.607052365%"></stop>
            <stop stop-color="#381CE2" offset="100%"></stop>
        </linearGradient>
        <linearGradient x1="0%" y1="27.3810403%" x2="116.106197%" y2="80.0066474%" id="linearGradient-9">
            <stop stop-color="#CA1E3F" offset="0.607052365%"></stop>
            <stop stop-color="#381CE2" offset="100%"></stop>
        </linearGradient>
        <linearGradient x1="22.9576419%" y1="0%" x2="85.7533491%" y2="116.330742%" id="linearGradient-10">
            <stop stop-color="#CA1E3F" offset="0.607052365%"></stop>
            <stop stop-color="#381CE2" offset="100%"></stop>
        </linearGradient>
    </defs>
    <g id="MSP_SELU_1280" stroke="none" stroke-width="1" fill="none" fill-rule="evenodd">
        <g id="MSP_WEB_PDP_1280" transform="translate(-202.000000, -523.000000)">
            <g id="Group-16" transform="translate(0.000000, 494.000000)">
                <g id="trust-Content" transform="translate(170.000000, 24.000000)">
                    <g id="secure-payments">
                        <g id="Group-12" transform="translate(29.000000, 0.000000)">
                            <rect id="colour-black" x="3" y="3" width="41.28" height="41"></rect>
                            <g id="noun_Secure-Payment_1314289" transform="translate(3.860000, 5.562500)" fill-rule="nonzero">
                                <g id="Group">
                                    <g transform="translate(8.076522, 0.000000)">
                                        <g transform="translate(5.908017, 4.575893)" id="Path">
                                            <polygon fill="url(#linearGradient-1)" points="0.525157054 2.48405612 0.525157054 3.1377551 2.62578527 3.1377551 2.62578527 3.1377551 2.62578527 2.61479592 2.62578527 2.48405612"></polygon>
                                            <path d="M3.15094232,2.61479592 L5.25157054,2.61479592 L5.25157054,1.89572704 C5.25157054,1.11128827 4.66076886,0.522959184 3.87303327,0.522959184 L3.15094232,0.522959184 L3.15094232,2.61479592 L3.15094232,2.61479592 Z" fill="url(#linearGradient-2)"></path>
                                            <path d="M3.15094232,3.1377551 L3.15094232,5.22959184 L3.87303327,5.22959184 C4.66076886,5.22959184 5.25157054,4.64126276 5.25157054,3.85682398 L5.25157054,3.1377551 L3.15094232,3.1377551 L3.15094232,3.1377551 Z" fill="url(#linearGradient-2)"></path>
                                            <path d="M2.62578527,3.66071429 L0.525157054,3.66071429 L0.525157054,3.85682398 C0.525157054,4.64126276 1.11595874,5.22959184 1.90369432,5.22959184 L2.62578527,5.22959184 L2.62578527,3.66071429 Z" fill="url(#linearGradient-3)"></path>
                                            <path d="M2.62578527,2.02646684 L2.62578527,0.522959184 L1.90369432,0.522959184 C1.11595874,0.522959184 0.525157054,1.11128827 0.525157054,1.89572704 L0.525157054,2.02646684 L2.62578527,2.02646684 Z" fill="url(#linearGradient-4)"></path>
                                        </g>
                                        <g transform="translate(21.006282, 5.229592)">
                                            <path d="M2.29756211,2.22257653 C2.29756211,2.74553571 2.49449601,3.203125 2.82271917,3.52997449 C2.56014064,3.72608418 2.23191748,3.79145408 1.90369432,3.79145408 C0.984669476,3.79145408 0.262578527,3.0723852 0.262578527,2.15720663 C0.262578527,1.24202806 0.984669476,0.522959184 1.90369432,0.522959184 C2.23191748,0.522959184 2.56014064,0.65369898 2.82271917,0.784438776 C2.42885138,1.24202806 2.29756211,1.69961735 2.29756211,2.22257653 Z" id="Path" fill="url(#linearGradient-5)"></path>
                                            <ellipse id="Oval" fill="url(#linearGradient-6)" cx="4.3325457" cy="2.22257653" rx="1.64111579" ry="1.63424745"></ellipse>
                                        </g>
                                        <path d="M26.914299,16.669324 C26.914299,16.9961735 26.6517205,17.323023 26.2578527,17.323023 L11.1595874,17.323023 C11.0939428,16.8654337 11.0939428,16.4732143 10.9626535,16.015625 L26.2578527,16.015625 C26.6517205,16.015625 26.914299,16.2771046 26.914299,16.669324 Z" id="Path" fill="url(#linearGradient-7)"></path>
                                        <path d="M26.914299,13.4008291 C26.914299,13.7276786 26.6517205,14.0545281 26.2578527,14.0545281 L10.3062072,14.0545281 C10.1092733,13.5969388 9.84669476,13.2047194 9.58411624,12.7471301 L26.2578527,12.7471301 C26.6517205,12.7471301 26.914299,13.0086097 26.914299,13.4008291 Z" id="Path" fill="url(#linearGradient-8)"></path>
                                        <path d="M29.2118611,0.32684949 L4.20125643,0.32684949 C2.16627285,0.32684949 0.525157054,1.96109694 0.525157054,3.98756378 L0.525157054,8.43271684 C0.853380213,8.36734694 1.247248,8.36734694 1.57547116,8.36734694 L1.57547116,8.36734694 C2.10062822,8.36734694 2.56014064,8.43271684 3.08529769,8.49808673 L3.08529769,3.98756378 C3.08529769,3.39923469 3.61045475,2.87627551 4.20125643,2.87627551 L29.2775058,2.87627551 C29.8683075,2.87627551 30.3934645,3.39923469 30.3934645,3.98756378 L30.3934645,18.3689413 C30.3934645,18.9572704 29.8683075,19.4802296 29.2775058,19.4802296 L11.1595874,19.4802296 L11.1595874,19.6109694 C12.2099015,20.0031888 13.0632817,20.9183673 13.2602156,22.0950255 L29.2118611,22.0950255 C31.2468447,22.0950255 32.8879605,20.4607781 32.8879605,18.4343112 L32.8879605,4.05293367 C32.9536051,1.96109694 31.2468447,0.32684949 29.2118611,0.32684949 Z" id="Path" fill="url(#linearGradient-9)"></path>
                                    </g>
                                    <path d="M18.8513677,22.2529309 L17.6263691,22.2529309 L17.6263691,18.5054992 C17.6263691,14.2129865 14.2235951,10.7380952 10.0041554,10.7380952 C5.71666024,10.7380952 2.31388629,14.1448513 2.31388629,18.5054992 L2.31388629,22.321066 L0.952776707,22.321066 C0.408332874,22.321066 0,22.7298767 0,23.2749577 L0,36.6294416 C0,37.1745226 0.408332874,37.5833333 0.952776707,37.5833333 L18.7833122,37.5833333 C19.327756,37.5833333 19.7360889,37.1745226 19.7360889,36.6294416 L19.7360889,23.2068226 C19.8041444,22.6617416 19.327756,22.2529309 18.8513677,22.2529309 Z M6.12499311,17.6878777 C6.32915955,15.8482294 8.16665749,14.485527 10.0722109,14.6217972 C11.9777643,14.6899323 13.5430403,16.2570401 13.6791513,18.1648235 C13.7472068,19.527526 13.6791513,20.8220933 13.6791513,22.2529309 L6.12499311,22.2529309 C6.12499311,20.6858231 5.98888216,19.1187153 6.12499311,17.6878777 Z M15.2444273,30.7698211 C15.0402609,30.9742265 14.6999835,31.1104967 14.3597061,31.1104967 L11.8416534,31.1104967 C11.4333205,31.791848 10.6847102,32.2006587 9.86804446,32.2006587 C9.05137871,32.2006587 8.30276844,31.791848 7.89443557,31.1104967 L5.44443832,31.1104967 C4.76388353,31.1104967 4.2194397,30.5654158 4.2194397,29.8840645 C4.2194397,29.5433889 4.35555066,29.2027133 4.5597171,28.998308 C4.76388353,28.7939026 5.10416093,28.6576323 5.44443832,28.6576323 L7.96249105,28.6576323 C8.37082392,27.9762811 9.11943419,27.5674704 9.93609994,27.5674704 C10.7527657,27.5674704 11.501376,27.9762811 11.9097088,28.6576323 L14.4277616,28.6576323 C15.1083163,28.6576323 15.6527602,29.2027133 15.6527602,29.8840645 C15.6527602,30.2247401 15.5166492,30.5654158 15.2444273,30.7698211 Z" id="Shape" fill="url(#linearGradient-10)"></path>
                                </g>
                            </g>
                            <rect id="Rectangle" fill-opacity="0" fill="#FFFFFF" x="0" y="0" width="48" height="48"></rect>
                        </g>
                    </g>
                </g>
            </g>
        </g>
    </g>
</svg>