<?xml version="1.0" encoding="UTF-8"?>
<svg width="43px" height="24px" viewBox="0 0 43 24" version="1.1" xmlns="http://www.w3.org/2000/svg" xmlns:xlink="http://www.w3.org/1999/xlink">
    <!-- Generator: Sketch 59.1 (86144) - https://sketch.com -->
    <title>xhdpi/Group 10</title>
    <desc>Created with Sketch.</desc>
    <defs>
        <linearGradient x1="0%" y1="34.424013%" x2="116.106197%" y2="70.6633354%" id="linearGradient-1">
            <stop stop-color="#CA1E3F" offset="0%"></stop>
            <stop stop-color="#321CE2" offset="100%"></stop>
        </linearGradient>
    </defs>
    <g id="MSP_SELU_1280" stroke="none" stroke-width="1" fill="none" fill-rule="evenodd">
        <g id="MSP_WEB_PDP_1280" transform="translate(-633.000000, -530.000000)">
            <g id="Group-16" transform="translate(0.000000, 494.000000)">
                <g id="trust-Content" transform="translate(170.000000, 24.000000)">
                    <g id="free-shipping" transform="translate(442.000000, 0.000000)">
                        <g id="Group-10" transform="translate(18.000000, 0.000000)">
                            <rect id="colour-black" fill-opacity="0" fill="#FFFFFF" x="0" y="0" width="48" height="48"></rect>
                            <g id="Group-8" transform="translate(3.000000, 12.000000)" fill="url(#linearGradient-1)" fill-rule="nonzero">
                                <path d="M15.9327647,16.8499895 C13.9479493,16.8499895 12.343951,18.4521995 12.343951,20.4278621 C12.343951,22.3976502 13.9479493,24 15.9327647,24 C17.9175801,24 19.5215784,22.3976502 19.5215784,20.4278621 C19.5215784,18.4521995 17.9175801,16.8499895 15.9327647,16.8499895 Z M15.9327647,22.213931 C14.9403219,22.213931 14.1382876,21.4098189 14.1382876,20.4277222 C14.1382876,19.4400308 14.9403219,18.6416533 15.9327647,18.6416533 C16.9251373,18.6416533 17.7271716,19.4400308 17.7271716,20.4277222 C17.7271013,21.4098189 16.9251373,22.213931 15.9327647,22.213931 Z M43,14.2072173 L43,18.02154 C43,18.9730051 42.2250866,19.7443877 41.2690392,19.7443877 L39.4169477,19.7443877 C39.0822925,17.4586335 37.1033088,15.7013078 34.7145605,15.7013078 C32.3317141,15.7013078 30.3525899,17.4587034 30.0179346,19.7443877 L20.6305147,19.7443877 C20.2958595,17.4586335 18.3168056,15.7013078 15.9338889,15.7013078 C13.5509722,15.7013078 11.5719183,17.4587034 11.2373333,19.7443877 L8.91786275,19.7443877 C7.96188562,19.7443877 7.18697222,18.973075 7.18697222,18.02154 L7.18697222,14.2072173 L43,14.2072173 L43,14.2072173 Z M34.7191977,16.8499895 C32.7343824,16.8499895 31.1246225,18.4521995 31.1246225,20.4278621 C31.1246225,22.3976502 32.7344526,24 34.7191977,24 C36.6981814,24 38.3079412,22.3976502 38.3079412,20.4278621 C38.3079412,18.4521995 36.6981814,16.8499895 34.7191977,16.8499895 Z M34.7191977,22.213931 C33.7267549,22.213931 32.9247908,21.4098189 32.9247908,20.4277222 C32.9247908,19.4400308 33.7267549,18.6416533 34.7191977,18.6416533 C35.7058088,18.6416533 36.5136046,19.4400308 36.5136046,20.4277222 C36.5136046,21.4098189 35.7058088,22.213931 34.7191977,22.213931 Z M42.3179722,10.3661095 L35.5154706,3.66976712 C35.0827304,3.24477236 34.499982,3.00356668 33.8941176,3.00356668 L30.4611438,3.00356668 L30.4611438,1.72284775 C30.4611438,0.769564305 29.6879869,0 28.7302533,0 L8.9166683,0 C7.96462582,0 7.18577778,0.76963424 7.18577778,1.72284775 L7.18577778,1.9927967 L0.161601307,2.79858731 L12.608134,4.41184698 L0,5.65850759 L12.5637288,7.43646409 L0,8.52073572 L7.18619935,9.8697811 L7.18570752,13.254843 L42.9988056,13.254843 L42.9988056,11.9970627 C42.9988056,11.3825442 42.7507124,10.7968389 42.3179722,10.3661095 Z M39.3523072,10.5900413 L32.7690212,10.5900413 C32.6190131,10.5900413 32.4978121,10.4694734 32.4978121,10.3201622 L32.4978121,5.26057766 C32.4978121,5.11126652 32.6190131,4.99062872 32.7690212,4.99062872 L34.0210801,4.99062872 C34.0902876,4.99062872 34.1595654,5.01937198 34.2114886,5.06531925 L39.5370245,10.1249038 C39.7157696,10.291419 39.5945686,10.5900413 39.3523072,10.5900413 Z" id="Shape"></path>
                            </g>
                        </g>
                    </g>
                </g>
            </g>
        </g>
    </g>
</svg>